<svg width="1160" height="246" viewBox="0 0 1160 246" fill="none" xmlns="http://www.w3.org/2000/svg">
<path d="M1091.99 246C1047.74 246 1022.35 226.203 1020.73 189.855H1057.82C1060.1 207.055 1068.24 217.116 1091.66 217.116C1112.82 217.116 1122.25 209.652 1122.25 195.372C1122.25 181.417 1110.86 176.224 1085.81 172.005C1040.58 165.19 1024.31 152.209 1024.31 120.404C1024.31 86.6525 1056.2 69.4521 1088.08 69.4521C1123.23 69.4521 1150.56 82.4336 1154.79 120.729H1118.35C1114.77 105.151 1106.31 98.0113 1088.08 98.0113C1071.16 98.0113 1061.08 106.125 1061.08 118.133C1061.08 130.465 1068.89 135.657 1096.22 139.876C1136.24 146.043 1160 155.779 1160 191.802C1160 226.527 1135.92 246 1091.99 246Z" fill="white" fill-opacity="0.12"/>
<path d="M939.747 246C889.31 246 853.516 212.897 853.516 159.673V157.077C853.516 104.502 889.635 69.4521 938.12 69.4521C980.423 69.4521 1018.49 94.4414 1018.49 155.13V166.488H893.866C895.167 198.942 911.112 216.791 940.724 216.791C964.478 216.791 976.843 207.38 979.772 190.829H1017.84C1012.31 226.852 983.677 246 939.747 246ZM979.447 140.201C977.169 110.668 962.851 98.0113 938.12 98.0113C914.366 98.0113 898.421 113.914 894.516 140.201H979.447Z" fill="white" fill-opacity="0.12"/>
<path d="M773.758 246C724.948 246 687.852 214.195 687.852 159.998V157.401C687.852 103.853 725.924 69.4521 773.758 69.4521C811.179 69.4521 847.299 86.328 851.529 133.061H813.457C809.878 110.019 795.235 100.932 774.409 100.932C747.4 100.932 728.202 121.702 728.202 156.752V159.349C728.202 196.67 746.424 215.818 775.385 215.818C796.211 215.818 813.782 203.81 816.386 179.47H852.505C849.902 218.414 819.64 246 773.758 246Z" fill="white" fill-opacity="0.12"/>
<path d="M633.381 73.0206H672.754V242.753H633.381V73.0206ZM652.579 45.1105C639.563 45.1105 629.15 35.3744 629.15 22.7175C629.15 9.73606 639.563 0 652.579 0C665.596 0 676.008 9.73606 676.008 22.7175C676.008 35.3744 665.596 45.1105 652.579 45.1105Z" fill="white" fill-opacity="0.12"/>
<path d="M458.06 73.0195H497.51L542.09 202.51L586.019 73.0195H624.742L563.241 242.752H517.359L458.06 80.8086V107.097C423.241 107.097 402.741 118.78 402.741 154.479V242.752H363.367V73.0205H402.741V104.824C413.48 83.0806 429.424 70.7484 458.06 70.4238V73.0195Z" fill="white" fill-opacity="0.12"/>
<path d="M270.956 246C220.519 246 184.725 212.897 184.725 159.673V157.077C184.725 104.502 220.844 69.4521 269.329 69.4521C311.632 69.4521 349.704 94.4414 349.704 155.13V166.488H225.075C226.376 198.942 242.321 216.791 271.933 216.791C295.687 216.791 308.052 207.38 310.981 190.829H349.053C343.521 226.852 314.886 246 270.956 246ZM310.655 140.201C308.378 110.668 294.06 98.0113 269.329 98.0113C245.575 98.0113 229.63 113.914 225.725 140.201H310.655Z" fill="white" fill-opacity="0.12"/>
<path d="M93.3906 245.998C29.9371 245.998 3.57943 214.518 0 170.706H41.6516C44.2548 194.073 54.3423 213.545 93.3906 213.545C119.423 213.545 137.32 199.59 137.32 177.846C137.32 156.426 126.582 148.313 88.835 142.147C33.1911 134.358 6.83346 118.131 6.83346 74.3189C6.83346 36.3482 39.3737 7.78906 87.8588 7.78906C138.296 7.78906 167.582 30.5066 172.463 74.968H132.764C128.534 50.3032 114.867 40.2426 87.8588 40.2426C61.5011 40.2426 47.8342 52.575 47.8342 70.749C47.8342 89.8966 55.6439 98.9836 95.9938 104.825C150.661 112.614 178.972 127.543 178.972 174.276C178.972 214.518 144.479 245.998 93.3906 245.998Z" fill="white" fill-opacity="0.12"/>
</svg>
